<mxfile host="65bd71144e" modified="2021-02-21T10:09:05.662Z" agent="5.0 (X11; Linux x86_64) AppleWebKit/537.36 (KHTML, like Gecko) Code/1.53.0 Chrome/87.0.4280.141 Electron/11.2.1 Safari/537.36" etag="1mNBlP2Oax4jXN0gNPSE" version="14.2.4" type="embed">
    <diagram id="i23vjJWKYkM4lm4AK32f" name="Page-1">
        <mxGraphModel dx="1125" dy="969" grid="0" gridSize="10" guides="1" tooltips="1" connect="1" arrows="1" fold="1" page="1" pageScale="1" pageWidth="827" pageHeight="1169" background="#ffffff" math="0" shadow="0">
            <root>
                <mxCell id="0"/>
                <mxCell id="1" parent="0"/>
                <mxCell id="4" value="" style="outlineConnect=0;fontColor=#232F3E;fillColor=#D05C17;strokeColor=none;dashed=0;verticalLabelPosition=bottom;verticalAlign=top;align=center;html=1;fontSize=12;fontStyle=0;aspect=fixed;pointerEvents=1;shape=mxgraph.aws4.lambda_function;" parent="1" vertex="1">
                    <mxGeometry x="416.25" y="214" width="78" height="78" as="geometry"/>
                </mxCell>
                <mxCell id="6" value="" style="outlineConnect=0;fontColor=#232F3E;gradientColor=none;strokeColor=none;dashed=0;verticalLabelPosition=bottom;verticalAlign=top;align=center;html=1;fontSize=12;fontStyle=0;aspect=fixed;pointerEvents=1;shape=mxgraph.aws4.bucket_with_objects;fillColor=#E02D2D;" parent="1" vertex="1">
                    <mxGeometry x="229" y="214" width="75" height="78" as="geometry"/>
                </mxCell>
                <mxCell id="7" value="&lt;font color=&quot;#000000&quot;&gt;&lt;b&gt;Amazon&lt;br&gt;S3&lt;br&gt;&lt;/b&gt;&lt;/font&gt;" style="outlineConnect=0;dashed=0;verticalLabelPosition=bottom;verticalAlign=top;align=center;html=1;shape=mxgraph.aws3.s3;gradientColor=none;fillColor=#E02D2D;" parent="1" vertex="1">
                    <mxGeometry x="224" y="44" width="76.5" height="93" as="geometry"/>
                </mxCell>
                <mxCell id="8" value="&lt;font color=&quot;#000000&quot;&gt;&lt;b&gt;Amazon&lt;br&gt;Lambda&lt;br&gt;&lt;/b&gt;&lt;/font&gt;" style="outlineConnect=0;dashed=0;verticalLabelPosition=bottom;verticalAlign=top;align=center;html=1;shape=mxgraph.aws3.lambda;fillColor=#F58534;gradientColor=none;" parent="1" vertex="1">
                    <mxGeometry x="417.75" y="44" width="76.5" height="93" as="geometry"/>
                </mxCell>
                <mxCell id="32" style="edgeStyle=elbowEdgeStyle;rounded=0;jumpSize=9;orthogonalLoop=1;jettySize=auto;html=1;labelBackgroundColor=none;fontColor=#000000;strokeColor=#1A1A1A;startArrow=block;startFill=1;endArrow=none;endFill=0;fontStyle=1" parent="1" source="10" target="12" edge="1">
                    <mxGeometry relative="1" as="geometry">
                        <Array as="points">
                            <mxPoint x="774" y="367"/>
                        </Array>
                    </mxGeometry>
                </mxCell>
                <mxCell id="33" value="&lt;b&gt;putObject&lt;/b&gt;" style="edgeLabel;html=1;align=center;verticalAlign=middle;resizable=0;points=[];fontColor=#000000;labelBackgroundColor=none;" parent="32" vertex="1" connectable="0">
                    <mxGeometry x="-0.1235" y="-2" relative="1" as="geometry">
                        <mxPoint y="18" as="offset"/>
                    </mxGeometry>
                </mxCell>
                <mxCell id="10" value="" style="outlineConnect=0;fontColor=#232F3E;gradientColor=none;strokeColor=none;dashed=0;verticalLabelPosition=bottom;verticalAlign=top;align=center;html=1;fontSize=12;fontStyle=0;aspect=fixed;pointerEvents=1;shape=mxgraph.aws4.bucket_with_objects;fillColor=#E02D2D;" parent="1" vertex="1">
                    <mxGeometry x="673" y="212" width="75" height="78" as="geometry"/>
                </mxCell>
                <mxCell id="11" value="&lt;font color=&quot;#000000&quot;&gt;&lt;b&gt;Amazon&lt;br&gt;S3&lt;br&gt;&lt;/b&gt;&lt;/font&gt;" style="outlineConnect=0;dashed=0;verticalLabelPosition=bottom;verticalAlign=top;align=center;html=1;shape=mxgraph.aws3.s3;gradientColor=none;fillColor=#E02D2D;" parent="1" vertex="1">
                    <mxGeometry x="668" y="39" width="76.5" height="93" as="geometry"/>
                </mxCell>
                <mxCell id="12" value="" style="outlineConnect=0;fontColor=#232F3E;fillColor=#D05C17;strokeColor=none;dashed=0;verticalLabelPosition=bottom;verticalAlign=top;align=center;html=1;fontSize=12;fontStyle=0;aspect=fixed;pointerEvents=1;shape=mxgraph.aws4.lambda_function;" parent="1" vertex="1">
                    <mxGeometry x="668" y="429" width="78" height="78" as="geometry"/>
                </mxCell>
                <mxCell id="15" value="Trigger" style="html=1;endArrow=block;elbow=vertical;startArrow=none;endFill=1;strokeColor=#545B64;rounded=0;noLabel=1;fontColor=none;labelBackgroundColor=none;fontStyle=1" parent="1" source="6" target="4" edge="1">
                    <mxGeometry width="100" relative="1" as="geometry">
                        <mxPoint x="295" y="369" as="sourcePoint"/>
                        <mxPoint x="395" y="369" as="targetPoint"/>
                    </mxGeometry>
                </mxCell>
                <mxCell id="34" value="trigger" style="edgeLabel;html=1;align=center;verticalAlign=middle;resizable=0;points=[];fontColor=#000000;labelBackgroundColor=none;fontStyle=1" parent="15" vertex="1" connectable="0">
                    <mxGeometry x="-0.2131" y="2" relative="1" as="geometry">
                        <mxPoint x="-1" y="7" as="offset"/>
                    </mxGeometry>
                </mxCell>
                <mxCell id="16" value="&lt;font color=&quot;#000000&quot;&gt;putObject&lt;/font&gt;" style="html=1;endArrow=block;elbow=vertical;startArrow=none;endFill=1;strokeColor=#545B64;rounded=0;jumpSize=9;labelBackgroundColor=none;fontStyle=1" parent="1" source="4" target="10" edge="1">
                    <mxGeometry x="-0.209" y="-7" width="100" relative="1" as="geometry">
                        <mxPoint x="528" y="332" as="sourcePoint"/>
                        <mxPoint x="498.25" y="258" as="targetPoint"/>
                        <mxPoint as="offset"/>
                    </mxGeometry>
                </mxCell>
                <mxCell id="17" value="invoke" style="html=1;endArrow=block;elbow=vertical;startArrow=none;endFill=1;strokeColor=#545B64;rounded=0;fontColor=#000000;labelBackgroundColor=none;fontStyle=1" parent="1" source="4" target="13" edge="1">
                    <mxGeometry width="100" relative="1" as="geometry">
                        <mxPoint x="504.25" y="263" as="sourcePoint"/>
                        <mxPoint x="609" y="263" as="targetPoint"/>
                    </mxGeometry>
                </mxCell>
                <mxCell id="18" value="trigger" style="html=1;endArrow=block;elbow=vertical;startArrow=none;endFill=1;strokeColor=#545B64;rounded=0;fontColor=#000000;labelBackgroundColor=none;fontStyle=1" parent="1" source="10" target="12" edge="1">
                    <mxGeometry width="100" relative="1" as="geometry">
                        <mxPoint x="626" y="345" as="sourcePoint"/>
                        <mxPoint x="683" y="258" as="targetPoint"/>
                    </mxGeometry>
                </mxCell>
                <mxCell id="22" value="31/Markdown.md" style="text;html=1;strokeColor=none;fillColor=none;align=center;verticalAlign=middle;whiteSpace=wrap;rounded=0;labelBackgroundColor=none;fontColor=#000000;" parent="1" vertex="1">
                    <mxGeometry x="202" y="297" width="133" height="20" as="geometry"/>
                </mxCell>
                <mxCell id="24" value="Bucket alucloud-lambda-out" style="text;html=1;strokeColor=none;fillColor=none;align=center;verticalAlign=middle;whiteSpace=wrap;rounded=0;labelBackgroundColor=none;fontColor=#000000;" parent="1" vertex="1">
                    <mxGeometry x="621.75" y="189" width="169" height="20" as="geometry"/>
                </mxCell>
                <mxCell id="26" value="Bucket alucloud-lambda" style="text;html=1;strokeColor=none;fillColor=none;align=center;verticalAlign=middle;whiteSpace=wrap;rounded=0;labelBackgroundColor=none;fontColor=#000000;" parent="1" vertex="1">
                    <mxGeometry x="182" y="190" width="169" height="20" as="geometry"/>
                </mxCell>
                <mxCell id="27" value="&lt;font style=&quot;font-size: 10px&quot;&gt;31/Markdown.html&lt;/font&gt;" style="text;html=1;strokeColor=none;fillColor=none;align=center;verticalAlign=middle;whiteSpace=wrap;rounded=0;labelBackgroundColor=none;fontColor=#000000;" parent="1" vertex="1">
                    <mxGeometry x="571" y="231" width="110" height="20" as="geometry"/>
                </mxCell>
                <mxCell id="28" value="&lt;font color=&quot;#000000&quot;&gt;putObject&lt;/font&gt;" style="html=1;endArrow=block;elbow=vertical;startArrow=none;endFill=1;rounded=0;entryX=0.5;entryY=1.001;entryDx=0;entryDy=0;entryPerimeter=0;strokeColor=#1A1A1A;labelBackgroundColor=none;fontStyle=1" parent="1" edge="1">
                    <mxGeometry width="100" relative="1" as="geometry">
                        <mxPoint x="481.25" y="435.3587980463906" as="sourcePoint"/>
                        <mxPoint x="695.5" y="289.00296423713905" as="targetPoint"/>
                    </mxGeometry>
                </mxCell>
                <mxCell id="29" value="&lt;font style=&quot;font-size: 10px&quot;&gt;31/mylistResults.html&lt;/font&gt;" style="text;html=1;strokeColor=none;fillColor=none;align=center;verticalAlign=middle;whiteSpace=wrap;rounded=0;labelBackgroundColor=none;fontColor=#000000;rotation=326;" parent="1" vertex="1">
                    <mxGeometry x="582" y="306" width="110" height="20" as="geometry"/>
                </mxCell>
                <mxCell id="31" value="&lt;font style=&quot;font-size: 10px&quot;&gt;31/mylistResults.html&lt;/font&gt;" style="text;html=1;strokeColor=none;fillColor=none;align=center;verticalAlign=middle;whiteSpace=wrap;rounded=0;labelBackgroundColor=none;fontColor=#000000;rotation=90;" parent="1" vertex="1">
                    <mxGeometry x="727" y="290" width="110" height="20" as="geometry"/>
                </mxCell>
                <mxCell id="13" value="" style="outlineConnect=0;fontColor=#232F3E;strokeColor=none;dashed=0;verticalLabelPosition=bottom;verticalAlign=top;align=center;html=1;fontSize=12;fontStyle=0;aspect=fixed;pointerEvents=1;shape=mxgraph.aws4.lambda_function;fillColor=#D0A517;" parent="1" vertex="1">
                    <mxGeometry x="416.25" y="424" width="78" height="78" as="geometry"/>
                </mxCell>
                <mxCell id="35" value="" style="shape=actor;whiteSpace=wrap;html=1;labelBackgroundColor=none;" parent="1" vertex="1">
                    <mxGeometry x="61" y="199" width="56" height="74" as="geometry"/>
                </mxCell>
                <mxCell id="37" value="Trigger" style="html=1;endArrow=block;elbow=vertical;startArrow=none;endFill=1;strokeColor=#545B64;rounded=0;noLabel=1;fontColor=none;labelBackgroundColor=none;fontStyle=1;exitX=1;exitY=0.75;exitDx=0;exitDy=0;" parent="1" source="35" target="6" edge="1">
                    <mxGeometry width="100" relative="1" as="geometry">
                        <mxPoint x="121" y="263" as="sourcePoint"/>
                        <mxPoint x="233.25" y="263" as="targetPoint"/>
                    </mxGeometry>
                </mxCell>
                <mxCell id="38" value="upload" style="edgeLabel;html=1;align=center;verticalAlign=middle;resizable=0;points=[];fontColor=#000000;labelBackgroundColor=none;fontStyle=1" parent="37" vertex="1" connectable="0">
                    <mxGeometry x="-0.2131" y="2" relative="1" as="geometry">
                        <mxPoint x="-1" y="7" as="offset"/>
                    </mxGeometry>
                </mxCell>
            </root>
        </mxGraphModel>
    </diagram>
</mxfile>